<?xml version="1.0" encoding="utf-8"?>
<!-- Generator: Adobe Illustrator 27.9.0, SVG Export Plug-In . SVG Version: 6.00 Build 0)  -->
<svg version="1.1" id="Layer_1" xmlns="http://www.w3.org/2000/svg" xmlns:xlink="http://www.w3.org/1999/xlink" x="0px" y="0px"
	 viewBox="0 0 437 361" style="enable-background:new 0 0 437 361;" xml:space="preserve">
<style type="text/css">
	.st0{fill-rule:evenodd;clip-rule:evenodd;fill:url(#Ellipse-copy-8_00000038399699530810182680000017717755915225203637_);}
</style>
<g id="Group-copy">
	
		<radialGradient id="Ellipse-copy-8_00000070808253529704556950000003538596912887097267_" cx="36.4532" cy="330.7555" r="458.3457" gradientTransform="matrix(1 0 0 -1 0 362)" gradientUnits="userSpaceOnUse">
		<stop  offset="6.406000e-03" style="stop-color:#3176C7"/>
		<stop  offset="1" style="stop-color:#FF8E00"/>
	</radialGradient>
	
		<path id="Ellipse-copy-8" style="fill-rule:evenodd;clip-rule:evenodd;fill:url(#Ellipse-copy-8_00000070808253529704556950000003538596912887097267_);" d="
		M161.5,328C90.5,328,33,270.5,33,199.5c0-0.2,0-0.3,0-0.5h0V27h56v172h0c0,0.2,0,0.3,0,0.5c0,40,32.5,72.5,72.5,72.5
		c2.6,0,5.1-0.1,7.6-0.4c-14-20.6-22.1-45.4-22.1-72.1c0-0.2,0-0.3,0-0.5h0V27h56v172h0c0,0.2,0,0.3,0,0.5
		c0,16.9,5.8,32.5,15.5,44.8c9.7-12.3,15.5-27.9,15.5-44.8c0-0.2,0-0.3,0-0.5h0V27h56v172h0c0,0.2,0,0.3,0,0.5
		c0,26.7-8.2,51.5-22.1,72.1c2.5,0.3,5,0.4,7.6,0.4c40,0,72.5-32.5,72.5-72.5c0-0.2,0-0.3,0-0.5h0V27h56v172h0c0,0.2,0,0.3,0,0.5
		c0,71-57.5,128.5-128.5,128.5c-20.5,0-39.8-4.8-57-13.3C201.3,323.2,182,328,161.5,328z"/>
</g>
</svg>
