<?xml version="1.0" encoding="UTF-8"?>
<!-- Generated by Pixelmator Pro 3.4.1 -->
<svg width="437" height="361" viewBox="0 0 437 361" xmlns="http://www.w3.org/2000/svg">
    <g id="Group-copy">
        <radialGradient id="radialGradient1" cx="36.45322" cy="31.244521" r="458.345714" fx="36.45322" fy="31.244521" gradientUnits="userSpaceOnUse">
            <stop offset="0.006406" stop-color="#3176c7" stop-opacity="1"/>
            <stop offset="1" stop-color="#ff8e00" stop-opacity="1"/>
        </radialGradient>
        <path id="Ellipse-copy-8" fill="url(#radialGradient1)" fill-rule="evenodd" stroke="none" d="M 161.5 328 C 90.531616 328 33 270.468384 33 199.5 C 33 199.333008 33.003269 199.16684 33.003906 199 L 33 199 L 33 27 L 89 27 L 89 199 L 89.003906 199 C 89.002785 199.166565 89 199.33316 89 199.5 C 89 239.540527 121.459473 272 161.5 272 C 164.074173 272 166.616196 271.865234 169.121094 271.603516 C 155.158722 251.044189 147 226.225082 147 199.5 C 147 199.333008 147.003265 199.16684 147.003906 199 L 147 199 L 147 27 L 203 27 L 203 199 L 203.003906 199 C 203.002777 199.166565 203 199.33316 203 199.5 C 203 216.413559 208.79158 231.973602 218.5 244.306641 C 228.20842 231.973602 234 216.413559 234 199.5 C 234 199.33316 233.997223 199.166565 233.996094 199 L 234 199 L 234 27 L 290 27 L 290 199 L 289.996094 199 C 289.996735 199.16684 290 199.333008 290 199.5 C 290 226.225082 281.841278 251.044189 267.878906 271.603516 C 270.383789 271.865234 272.925812 272 275.5 272 C 315.540527 272 348 239.540527 348 199.5 C 348 199.33316 347.997223 199.166565 347.996094 199 L 348 199 L 348 27 L 404 27 L 404 199 L 403.996094 199 C 403.996735 199.16684 404 199.333008 404 199.5 C 404 270.468384 346.468384 328 275.5 328 C 255.028931 328 235.676727 323.210876 218.5 314.695313 C 201.323273 323.210876 181.971069 328 161.5 328 Z"/>
    </g>
</svg>
